<svg width="344" height="418" viewBox="0 0 344 418" fill="none" xmlns="http://www.w3.org/2000/svg">
<path opacity="0.03" d="M428.796 229.602C444.98 187.432 441.275 156.381 441.275 156.381C441.275 156.381 426.083 166.931 420.052 152.001C413.96 136.889 431.803 70.5466 366.27 0.91073C366.27 0.91073 351.089 109.151 324.068 112.37C296.985 115.407 283.035 79.9231 245.054 45.645C248.273 72.8227 254 84.4234 241.006 88.786C227.464 93.3329 192.615 13.1929 93.9253 18.8763C115.076 46.6944 146.745 142.839 141.371 155.341C135.997 167.843 100.988 166.679 79.5205 161.573C96.5209 195.226 124.985 234.516 115.892 245.037C96.2409 267.782 21.1646 254.638 0.486533 257.342C25.0359 319.544 119.567 336.047 73.3796 367.702C98.5624 382.661 132.841 381.042 155.409 380.934C168.645 380.931 178.769 382.578 184.133 389.456C188.4 394.886 182.112 405.273 186.681 417.061C213.23 382.715 268.202 348.11 283.577 339.315C277.616 306.397 233.831 166.887 152.455 67.0458C251.775 142.697 317.723 360.954 319.489 366.82C323.942 365.527 331.447 359.979 330.229 354.535C328.343 345.277 326.577 340.622 323.532 330.341C321.766 324.475 325.186 316.464 334.215 311.818C348.125 304.726 397.298 280.748 450.677 261.414C446.105 255.682 433.235 256.168 429.335 249.403C425.069 242.156 425.864 237.247 428.796 229.602Z" fill="#30302E"/>
</svg>
