<svg width="382" height="263" viewBox="0 0 382 263" fill="none" xmlns="http://www.w3.org/2000/svg">
<path opacity="0.03" d="M240.06 393.752C283.217 380.42 305.342 358.321 305.342 358.321C305.342 358.321 287.659 352.895 295.672 338.927C303.789 324.8 366.977 297.837 381.236 203.283C381.236 203.283 286.752 258.228 267.524 238.971C248.402 219.554 267.682 186.66 271.164 135.617C251.785 154.941 246.203 166.612 234.744 159.091C222.801 151.252 264.279 74.3346 198.83 0.250227C190.027 34.069 134 118.376 120.85 121.876C107.7 125.375 86.9828 97.1296 77.7324 77.0964C61.7775 111.257 48.4733 157.914 34.5822 157.266C4.55595 155.869 -31.4984 88.7177 -46.4012 74.13C-80.1391 131.867 -34.7042 216.39 -88.1324 199.634C-84.3338 228.677 -61.8804 254.63 -47.8505 272.306C-39.6699 282.711 -34.7092 291.689 -36.8031 300.157C-38.4362 306.867 -50.4878 308.341 -56.9333 319.217C-13.5235 318.869 47.6517 340.71 64.067 347.364C86.2658 322.337 168.902 201.708 197.121 76.0333C199.01 200.869 68.1517 387.582 64.6305 392.595C68.399 395.297 77.3979 397.77 80.9269 393.449C87.04 386.246 89.6085 381.981 95.811 373.234C99.3323 368.221 107.744 365.96 116.976 370.188C131.147 376.743 180.384 400.589 228.568 430.612C230.25 423.476 221.916 413.658 224.824 406.411C227.887 398.579 232.238 396.171 240.06 393.752Z" fill="#30302E"/>
</svg>
