<svg width="18" height="20" viewBox="0 0 18 20" fill="currentColor" xmlns="http://www.w3.org/2000/svg">
  <path d="M2 19.9999C1.45 19.9999 0.979 19.8042 0.587 19.4129C0.195667 19.0209 0 18.5499 0 17.9999V3.99988C0 3.44988 0.195667 2.97921 0.587 2.58788C0.979 2.19588 1.45 1.99988 2 1.99988H3V-0.00012207H5V1.99988H13V-0.00012207H15V1.99988H16C16.55 1.99988 17.021 2.19588 17.413 2.58788C17.8043 2.97921 18 3.44988 18 3.99988V17.9999C18 18.5499 17.8043 19.0209 17.413 19.4129C17.021 19.8042 16.55 19.9999 16 19.9999H2ZM2 17.9999H16V7.99988H2V17.9999ZM2 5.99988H16V3.99988H2V5.99988Z"/>
</svg>
