<?xml version="1.0" encoding="utf-8"?>
<svg viewBox="3.561 18.605 225.007 80" width="225.007px" height="80px" xmlns="http://www.w3.org/2000/svg">
  <path id="path0" d="M 154.283 23.422 L 154.283 28.178 L 159.322 28.178 L 164.362 28.178 L 164.362 23.422 L 164.362 18.665 L 159.322 18.665 L 154.283 18.665 L 154.283 23.422 M 52.134 24.665 C 50.939 24.752 49.814 24.891 48.49 25.116 C 46.451 25.462 43.519 26.289 41.659 27.042 C 39.755 27.813 37.244 29.031 36.145 29.717 C 35.42 30.169 33.74 31.283 33.675 31.355 C 33.644 31.389 33.364 31.592 33.053 31.806 C 29.978 33.916 26.972 37.093 24.039 41.334 C 23.114 42.671 21.389 46.033 20.65 47.94 C 20.384 48.624 20.127 49.287 20.078 49.412 C 20.029 49.536 19.907 49.919 19.808 50.261 C 19.708 50.604 19.581 51.037 19.525 51.224 C 19.469 51.41 19.34 51.895 19.239 52.299 C 19.138 52.704 19.011 53.188 18.957 53.375 C 18.903 53.562 18.777 54.25 18.677 54.904 C 18.577 55.559 18.446 56.374 18.388 56.716 C 18.028 58.807 18.025 64.038 18.383 66.116 C 18.442 66.458 18.516 67.011 18.548 67.344 L 18.606 67.949 L 16.142 70.401 C 14.787 71.75 13.502 73.058 13.287 73.308 C 13.071 73.557 12.586 74.118 12.21 74.553 C 10.923 76.042 9.57 77.745 8.603 79.094 C 8.071 79.835 7.541 80.569 7.426 80.724 C 6.211 82.357 4.428 86.178 3.992 88.086 C 3.003 92.418 4.874 95.885 8.761 96.921 C 9.041 96.996 9.373 97.099 9.497 97.152 C 10.618 97.622 15.671 97.523 18.444 96.977 C 21.816 96.313 22.936 96.025 26.711 94.851 C 27.52 94.599 28.234 94.36 28.296 94.32 C 28.358 94.28 28.689 94.156 29.032 94.044 C 29.375 93.933 29.757 93.801 29.881 93.75 C 31.228 93.207 34.117 92.162 34.276 92.162 C 34.452 92.162 34.741 92.319 35.89 93.035 C 36.882 93.654 39.662 95.081 40.616 95.462 C 42.714 96.3 44.155 96.759 46.585 97.365 C 47.115 97.497 47.726 97.654 47.944 97.714 C 51.103 98.582 58.47 98.525 62.44 97.603 C 62.72 97.538 63.256 97.428 63.629 97.358 C 64.003 97.289 64.357 97.187 64.416 97.132 C 64.475 97.077 64.61 97.032 64.715 97.032 C 64.984 97.032 67.01 96.359 68.58 95.748 C 72.506 94.22 77.296 91.213 80.041 88.553 C 83.76 84.949 86.002 81.957 87.957 77.985 C 89.052 75.761 90.045 73.261 90.399 71.835 C 90.461 71.585 90.57 71.177 90.639 70.929 C 90.862 70.134 91.106 69.128 91.16 68.777 C 91.298 67.9 91.538 66.323 91.644 65.606 C 91.94 63.601 91.889 59.465 91.533 56.603 C 91.459 56.011 91.393 55.416 91.387 55.28 C 91.378 55.103 92.031 54.365 93.696 52.673 C 97.107 49.206 98.692 47.401 100.833 44.544 C 102.002 42.984 102.062 42.898 102.991 41.428 C 103.818 40.12 105.31 37.18 105.482 36.517 C 105.534 36.322 105.729 35.601 105.918 34.916 C 106.636 32.3 106.195 29.91 104.653 28.064 C 104.459 27.832 103.364 26.932 103.276 26.932 C 103.236 26.932 103.012 26.81 102.776 26.662 C 100.066 24.951 92.878 25.123 86.674 27.046 C 86.519 27.094 86.06 27.221 85.656 27.328 C 85.251 27.436 84.817 27.564 84.693 27.613 C 84.568 27.661 83.676 27.959 82.711 28.274 C 81.746 28.588 79.763 29.306 78.304 29.868 L 75.653 30.891 L 74.454 30.135 C 73.158 29.318 69.982 27.672 69.065 27.342 C 68.753 27.23 68.142 27.011 67.706 26.856 C 67.27 26.701 66.811 26.529 66.687 26.473 C 66.452 26.368 65.531 26.104 63.686 25.612 C 62.598 25.322 62.318 25.267 60.685 25.019 C 60.186 24.944 59.55 24.831 59.271 24.768 C 58.623 24.622 53.697 24.551 52.134 24.665 M 58.816 29.652 C 59.096 29.706 59.861 29.834 60.515 29.938 C 71.358 31.655 80.93 39.569 84.893 50.091 C 85.465 51.609 85.715 52.388 85.825 52.987 L 85.9 53.392 L 83.881 55.153 C 82.77 56.121 81.25 57.41 80.503 58.017 C 79.755 58.625 78.915 59.336 78.634 59.599 C 78.151 60.05 77.797 60.336 75.4 62.206 C 72.457 64.5 68.784 67.175 68.696 67.087 C 68.627 67.017 68.921 66.2 69.308 65.387 C 69.455 65.079 69.574 64.787 69.574 64.739 C 69.574 64.69 69.695 64.381 69.842 64.052 C 70.323 62.977 70.367 62.827 70.364 62.288 C 70.356 60.952 69.408 60.057 67.999 60.057 C 66.702 60.057 66.315 60.343 65.652 61.794 C 65.377 62.395 65.102 62.977 65.041 63.085 C 64.981 63.193 64.931 63.33 64.931 63.388 C 64.931 63.447 64.783 63.817 64.603 64.211 C 64.422 64.605 64.142 65.244 63.979 65.632 C 63.817 66.02 63.563 66.606 63.414 66.934 C 63.265 67.262 62.929 68.041 62.666 68.664 C 62.212 69.741 61.869 70.543 61.648 71.042 C 60.29 74.111 60.383 75.157 62.1 76.096 C 62.345 76.23 70.345 76.424 75.518 76.422 C 77.712 76.42 78.838 74.187 77.501 72.487 C 76.901 71.724 76.15 71.561 73.227 71.555 C 72.026 71.553 71.047 71.506 71.047 71.451 C 71.047 71.37 73.134 69.796 74.367 68.947 C 74.777 68.665 76.945 67.028 77.438 66.63 C 77.691 66.425 78.051 66.177 78.238 66.08 C 78.425 65.982 79.164 65.438 79.88 64.871 C 80.596 64.303 81.743 63.398 82.428 62.859 C 83.614 61.927 84.178 61.456 86.001 59.873 C 86.967 59.035 86.949 59.021 86.996 60.661 C 87.567 80.509 69.598 96.267 49.983 93.12 C 38.033 91.203 27.567 82.149 24.397 70.985 C 24.318 70.705 24.207 70.359 24.151 70.215 C 24.095 70.072 24.05 69.864 24.05 69.751 C 24.05 69.546 26.627 67.239 29.316 65.04 C 30.063 64.428 30.929 63.687 31.241 63.394 C 31.827 62.84 35.042 60.317 36.862 58.981 C 39.289 57.2 41.282 55.791 41.321 55.831 C 41.348 55.857 40.963 56.842 40.467 58.02 C 39.437 60.463 39.379 60.819 39.862 61.707 C 40.33 62.566 40.899 62.889 41.942 62.886 C 43.308 62.882 43.859 62.374 44.639 60.397 C 44.762 60.085 44.999 59.525 45.166 59.151 C 45.692 57.975 45.764 57.81 46.078 57.056 C 46.247 56.651 46.558 55.947 46.769 55.491 C 46.979 55.034 47.152 54.641 47.152 54.616 C 47.152 54.591 47.283 54.277 47.443 53.917 C 47.921 52.843 48.014 52.629 48.461 51.563 C 48.696 51.003 48.926 50.493 48.973 50.431 C 49.019 50.368 49.122 50.003 49.201 49.619 C 49.547 47.938 48.565 46.797 46.674 46.684 C 44.054 46.529 34.22 46.413 33.748 46.532 C 31.938 46.987 31.32 49.38 32.675 50.679 C 33.261 51.24 33.49 51.28 36.146 51.289 C 39.203 51.298 39.237 51.309 38.325 51.966 C 37.941 52.243 37.351 52.673 37.016 52.923 C 36.68 53.172 36.221 53.503 35.996 53.659 C 35.771 53.815 35.526 53.993 35.452 54.055 C 34.985 54.448 32.071 56.605 31.85 56.722 C 31.701 56.801 31.376 57.026 31.127 57.223 C 27.995 59.701 27.021 60.487 25.522 61.748 C 24.556 62.56 23.639 63.34 23.484 63.481 C 23.101 63.83 23.072 63.814 22.989 63.212 C 22.723 61.274 23.196 56.361 23.897 53.772 C 24.058 53.18 24.232 52.515 24.284 52.294 C 24.63 50.843 26.461 46.633 27.384 45.165 C 30.587 40.078 33.931 36.763 38.819 33.828 C 39.561 33.383 40.453 32.893 40.8 32.74 C 41.148 32.586 41.713 32.332 42.056 32.175 C 46.811 29.997 54.541 28.833 58.816 29.652 M 174.72 29.565 C 174.691 29.643 174.655 31.695 174.639 34.123 L 174.611 38.54 L 172.147 38.57 L 169.684 38.601 L 169.684 42.506 L 169.684 46.411 L 172.172 46.411 L 174.659 46.411 L 174.698 65.295 C 174.737 83.87 174.741 84.193 174.968 85.085 C 175.654 87.773 177.234 89.77 179.31 90.571 C 179.528 90.655 179.859 90.786 180.046 90.863 C 181.494 91.453 182.973 91.596 187.654 91.596 L 191.77 91.596 L 191.741 87.491 L 191.711 83.385 L 188.879 83.326 C 185.69 83.259 185.318 83.166 184.811 82.31 C 184.577 81.914 184.576 81.896 184.547 64.162 L 184.517 46.411 L 187.963 46.411 C 189.858 46.411 191.49 46.38 191.588 46.342 C 191.747 46.281 191.767 45.831 191.767 42.435 L 191.767 38.597 L 188.143 38.597 L 184.52 38.597 L 184.52 34.189 C 184.52 31.765 184.489 29.702 184.451 29.603 C 184.359 29.363 174.81 29.326 174.72 29.565 M 99.306 30.279 C 102.991 31.239 102.239 34.827 96.872 41.888 C 95.266 44.001 94.395 44.993 91.48 48.024 C 89.794 49.777 89.919 49.754 89.446 48.393 C 87.945 44.078 84.506 38.765 80.962 35.287 C 79.984 34.327 79.983 34.313 80.843 34.011 C 81.154 33.902 81.562 33.75 81.748 33.674 C 81.935 33.597 82.496 33.395 82.994 33.225 C 83.492 33.054 84.002 32.874 84.127 32.826 C 84.251 32.776 84.812 32.597 85.372 32.426 C 85.933 32.256 86.519 32.074 86.674 32.022 C 87.017 31.907 87.585 31.75 88.713 31.456 C 89.18 31.335 89.741 31.187 89.959 31.128 C 91.212 30.79 93.868 30.271 94.829 30.178 C 96.076 30.057 98.677 30.115 99.306 30.279 M 125.235 38.708 C 125.11 38.763 124.852 38.811 124.66 38.815 C 122.969 38.854 120.293 40.433 119.18 42.051 C 117.715 44.178 117.591 45.092 117.591 53.772 C 117.591 62.078 117.635 62.513 118.697 64.629 C 119.181 65.593 120.806 67.361 121.208 67.361 C 121.265 67.361 121.379 67.426 121.461 67.505 C 121.664 67.701 122.942 68.22 123.706 68.417 C 125.146 68.789 125.77 68.834 129.509 68.834 C 136.939 68.834 136.601 68.465 136.601 76.591 C 136.601 84.323 136.688 84.184 131.86 84.169 C 127.367 84.155 127.34 84.128 127.243 79.62 L 127.184 76.874 L 122.488 76.874 L 117.793 76.874 L 117.846 80.696 C 117.876 82.874 117.949 84.664 118.016 84.858 C 118.08 85.045 118.268 85.625 118.434 86.147 C 119.36 89.062 121.764 90.877 125.428 91.424 C 128.177 91.835 138.315 91.625 139.901 91.124 C 143.346 90.035 145.029 88.195 145.723 84.761 C 145.988 83.449 145.991 69.716 145.727 68.404 C 145.118 65.38 143.316 63.155 140.806 62.326 C 140.464 62.214 140.082 62.084 139.957 62.038 C 139.03 61.7 138.413 61.654 133.898 61.581 C 128.079 61.486 127.927 61.456 127.33 60.276 L 127.047 59.717 L 127.047 53.715 L 127.047 47.713 L 127.33 47.147 C 127.866 46.074 128.095 46.015 131.633 46.015 C 136.289 46.015 136.39 46.128 136.39 51.389 L 136.39 53.206 L 141.09 53.206 L 145.789 53.206 L 145.789 50.62 C 145.789 42.761 144.033 39.85 138.655 38.798 C 137.886 38.647 125.562 38.565 125.235 38.708 M 154.509 65.096 L 154.509 91.596 L 159.322 91.596 L 164.135 91.596 L 164.135 65.096 L 164.135 38.597 L 159.322 38.597 L 154.509 38.597 L 154.509 65.096 M 205.017 38.73 C 204.161 38.909 203.045 39.195 202.865 39.283 C 202.772 39.329 202.466 39.459 202.186 39.572 C 199.982 40.461 198.747 42.087 197.764 45.392 C 197.567 46.052 197.464 82.248 197.655 83.719 C 197.845 85.192 197.905 85.531 197.994 85.65 C 198.04 85.713 198.114 85.917 198.159 86.104 C 198.804 88.816 201.541 90.88 205.215 91.424 C 206.917 91.677 218.899 91.675 220.505 91.422 C 226.323 90.508 228.113 87.799 228.117 79.903 L 228.12 76.421 L 223.433 76.421 L 218.748 76.421 L 218.688 79.224 C 218.588 83.966 218.545 84.001 212.831 84.001 C 208.583 84.001 207.898 83.844 207.35 82.744 L 207.055 82.152 L 207.055 75.097 L 207.055 68.041 L 217.762 68.041 L 228.468 68.041 L 228.425 57.084 C 228.38 45.565 228.395 45.917 227.891 44.203 C 227.026 41.253 224.798 39.508 220.891 38.719 C 220.133 38.565 205.757 38.576 205.017 38.73 M 217.346 46.3 C 218.883 46.75 218.957 47.154 218.92 54.904 L 218.89 60.963 L 212.973 60.992 L 207.055 61.022 L 207.056 54.594 C 207.057 47.119 207.088 46.911 208.273 46.423 C 209.146 46.064 216.211 45.969 217.346 46.3 M 20.199 73.65 C 20.199 73.821 20.742 75.251 21.114 76.058 C 21.237 76.325 21.422 76.755 21.525 77.013 C 21.628 77.272 21.958 77.935 22.259 78.487 C 22.558 79.039 22.804 79.511 22.804 79.535 C 22.804 79.56 23.105 80.058 23.474 80.643 C 25.23 83.431 26.477 85.044 28.466 87.103 C 29.994 88.684 29.933 88.582 29.461 88.766 C 29.256 88.846 28.936 88.976 28.749 89.055 C 28.562 89.133 28.155 89.283 27.843 89.389 C 27.532 89.495 27.175 89.623 27.051 89.674 C 26.541 89.881 25.183 90.349 24.333 90.609 C 22 91.324 21.444 91.482 20.652 91.653 C 20.185 91.754 19.624 91.882 19.406 91.938 C 17.434 92.442 14.713 92.832 13.143 92.837 C 11.895 92.842 10.377 92.662 10.182 92.486 C 10.123 92.433 10.007 92.389 9.925 92.389 C 8.686 92.389 8.063 90.344 8.704 88.381 C 9.259 86.68 12.061 81.973 13.06 81.064 C 13.093 81.033 13.351 80.702 13.631 80.328 C 13.911 79.954 14.191 79.594 14.254 79.527 C 14.316 79.459 14.672 79.057 15.046 78.632 C 15.42 78.206 15.777 77.802 15.839 77.733 C 15.901 77.664 16.151 77.379 16.394 77.1 C 17.381 75.963 19.998 73.365 20.095 73.426 C 20.152 73.461 20.199 73.562 20.199 73.65" stroke="none" fill="currentColor" fill-rule="evenodd"/>
  <path id="path1" d="M 52.587 29.535 C 51.871 29.584 50.75 29.701 50.096 29.795 C 47.722 30.138 44.278 31.157 42.056 32.175 C 41.713 32.332 41.148 32.586 40.8 32.74 C 40.065 33.064 37.773 34.423 36.79 35.119 C 32.817 37.928 30.141 40.787 27.384 45.165 C 26.461 46.633 24.63 50.843 24.284 52.294 C 24.232 52.515 24.058 53.18 23.897 53.772 C 23.196 56.361 22.723 61.274 22.989 63.212 C 23.072 63.814 23.101 63.83 23.484 63.481 C 24.596 62.469 28.775 59.052 31.184 57.187 C 31.854 56.668 31.977 56.506 31.977 56.144 C 31.977 55.813 32.656 53.677 33.02 52.866 C 33.145 52.586 33.346 52.138 33.466 51.872 C 33.691 51.371 33.668 51.167 33.386 51.167 C 32.767 51.167 31.96 49.88 31.957 48.887 C 31.95 47.125 33.103 46.357 35.642 46.431 L 36.874 46.468 L 37.851 45.463 C 39.391 43.88 41.323 42.291 42.482 41.654 C 42.652 41.561 43.047 41.333 43.358 41.147 C 44.111 40.699 45.422 40.069 45.603 40.069 C 45.682 40.069 45.796 40.023 45.855 39.966 C 45.914 39.91 46.37 39.728 46.868 39.563 C 47.367 39.397 47.876 39.217 48.001 39.163 C 48.528 38.932 49.988 38.615 52.191 38.251 C 53.896 37.971 58.304 38.213 60.345 38.7 C 62.561 39.228 65.664 40.458 66.8 41.257 C 66.987 41.389 67.293 41.567 67.48 41.654 C 67.666 41.741 68.048 41.995 68.329 42.218 C 68.848 42.631 69.333 42.977 69.69 43.188 C 70.259 43.523 73.122 46.429 73.708 47.265 C 73.833 47.443 74.103 47.811 74.309 48.085 C 74.871 48.83 75.91 50.641 76.469 51.849 C 76.742 52.44 77.01 53.011 77.064 53.119 C 77.118 53.227 77.162 53.408 77.162 53.521 C 77.162 53.634 77.204 53.775 77.255 53.834 C 77.306 53.893 77.441 54.247 77.554 54.621 C 77.668 54.995 77.788 55.377 77.822 55.471 C 77.887 55.652 78.115 56.636 78.309 57.565 C 78.374 57.877 78.452 58.45 78.483 58.84 C 78.515 59.229 78.564 59.547 78.593 59.547 C 78.692 59.547 81.868 56.908 83.881 55.153 L 85.9 53.392 L 85.825 52.987 C 85.715 52.388 85.465 51.609 84.893 50.091 C 80.93 39.569 71.358 31.655 60.515 29.938 C 59.861 29.834 59.096 29.706 58.816 29.652 C 58.063 29.508 54.086 29.433 52.587 29.535 M 86.618 59.32 C 86.523 59.475 84.074 61.544 82.597 62.719 C 81.252 63.787 78.545 65.914 78.417 66.002 C 78.333 66.06 78.189 66.577 77.944 67.701 C 77.765 68.517 77.126 70.372 76.767 71.117 C 76.496 71.68 76.515 71.882 76.842 71.889 C 77.278 71.899 78.063 73.284 78.063 74.043 C 78.063 75.656 77.005 76.45 74.869 76.437 C 73.82 76.43 73.538 76.461 73.538 76.582 C 73.538 76.798 70.238 80.095 69.657 80.458 C 69.394 80.623 69.153 80.796 69.122 80.843 C 68.777 81.357 64.461 83.712 63.233 84.057 C 63.077 84.1 62.848 84.176 62.723 84.224 C 62.159 84.445 61.314 84.688 61.113 84.688 C 60.992 84.688 60.854 84.726 60.808 84.773 C 60.696 84.886 59.532 85.132 58.477 85.266 C 53.825 85.857 49.083 85.251 45.642 83.627 C 45.32 83.475 44.829 83.257 44.55 83.142 C 44.271 83.027 43.885 82.825 43.691 82.694 C 43.498 82.563 43.038 82.291 42.67 82.09 C 42.3 81.889 41.897 81.636 41.773 81.529 C 41.548 81.335 41.372 81.21 40.56 80.668 C 38.929 79.58 35.98 76.257 34.63 73.986 C 33.886 72.735 32.882 70.708 32.882 70.456 C 32.882 70.371 32.835 70.214 32.777 70.106 C 32.533 69.653 31.958 67.684 31.694 66.399 C 31.551 65.698 31.312 63.578 31.367 63.49 C 31.595 63.121 29.247 65.029 26.003 67.849 C 24.047 69.549 23.943 69.682 24.151 70.215 C 24.207 70.359 24.318 70.705 24.397 70.985 C 24.71 72.087 25.679 74.432 26.462 75.981 C 34.338 91.561 53.31 97.934 68.973 90.262 C 78.002 85.84 84.349 77.624 86.401 67.701 C 87.086 64.39 87.244 58.309 86.618 59.32" stroke="none" fill="#4bd36c" fill-rule="evenodd"/>
</svg>
