<svg viewBox="0 0 19 19" xmlns="http://www.w3.org/2000/svg">
  <path d="M13.1458 12.0833H12.3229L12.0312 11.8021C13.0521 10.6146 13.6667 9.07292 13.6667 7.39583C13.6667 3.65625 10.6354 0.625 6.89583 0.625C3.15625 0.625 0.125 3.65625 0.125 7.39583C0.125 11.1354 3.15625 14.1667 6.89583 14.1667C8.57292 14.1667 10.1146 13.5521 11.3021 12.5312L11.5833 12.8229V13.6458L16.7917 18.8438L18.3438 17.2917L13.1458 12.0833ZM6.89583 12.0833C4.30208 12.0833 2.20833 9.98958 2.20833 7.39583C2.20833 4.80208 4.30208 2.70833 6.89583 2.70833C9.48958 2.70833 11.5833 4.80208 11.5833 7.39583C11.5833 9.98958 9.48958 12.0833 6.89583 12.0833Z" />
</svg>
