<svg viewBox="0.13 0 15.742 18" width="15.742" height="18" xmlns="http://www.w3.org/2000/svg">
  <style type="text/css">
    .st0{fill:currentColor;}
  </style>
  <path d="M 15.872 7.378 C 14.325 7.382 12.815 6.899 11.557 5.999 L 11.557 12.28 C 11.555 16.678 6.793 19.425 2.984 17.225 C -0.823 15.025 -0.822 9.526 2.989 7.329 C 4.089 6.695 5.369 6.445 6.628 6.619 L 6.628 9.778 C 4.702 9.172 2.842 10.878 3.281 12.85 C 3.719 14.82 6.127 15.577 7.614 14.212 C 8.156 13.715 8.464 13.015 8.464 12.28 L 8.464 0 L 11.557 0 C 11.554 0.261 11.576 0.522 11.622 0.779 C 11.839 1.94 12.525 2.959 13.517 3.599 C 14.215 4.061 15.034 4.307 15.872 4.307 L 15.872 7.378 Z" class="st0"/>
</svg>
