<svg width="24" height="24" viewBox="0 0 24 24" fill="none" xmlns="http://www.w3.org/2000/svg">
  <style type="text/css">
    .st0{fill:currentColor;}
  </style>
  <path d="M17.4982 14.3822C17.1996 14.2334 15.7316 13.5146 15.4579 13.4154C15.1843 13.3162 14.9852 13.2667 14.7862 13.5641C14.5871 13.8615 14.0149 14.5309 13.8407 14.7292C13.6665 14.9275 13.4924 14.9525 13.1938 14.8036C12.8952 14.6549 11.9331 14.3411 10.7926 13.3287C9.90506 12.5408 9.30577 11.5677 9.13163 11.2702C8.95744 10.9727 9.11302 10.8119 9.2625 10.6637C9.39689 10.5306 9.56114 10.3166 9.71039 10.1431C9.85973 9.96964 9.90947 9.8456 10.009 9.64738C10.1085 9.44902 10.0588 9.27553 9.98405 9.1268C9.90947 8.97808 9.31233 7.51539 9.06352 6.92031C8.82113 6.34096 8.57498 6.41943 8.3917 6.41023C8.21775 6.40165 8.01844 6.39983 7.81945 6.39983C7.62042 6.39983 7.29689 6.47419 7.02319 6.77159C6.74953 7.06908 5.9782 7.78807 5.9782 9.25061C5.9782 10.7133 7.04808 12.1263 7.19738 12.3246C7.34667 12.523 9.30281 15.5244 12.2981 16.8115C13.0104 17.1178 13.5667 17.3006 14.0002 17.4375C14.7155 17.6637 15.3664 17.6318 15.8809 17.5552C16.4546 17.47 17.6475 16.8364 17.8963 16.1424C18.1451 15.4481 18.1451 14.8532 18.0705 14.7292C17.9958 14.6053 17.7968 14.5309 17.4982 14.3822ZM12.0502 21.7853H12.0462C10.2639 21.7846 8.51587 21.3081 6.99094 20.4075L6.62822 20.1933L2.86912 21.1746L3.87248 17.527L3.63637 17.153C2.64211 15.5793 2.11697 13.7603 2.11777 11.8925C2.11997 6.44256 6.57558 2.00864 12.0541 2.00864C14.707 2.00953 17.2008 3.03906 19.0761 4.90747C20.9513 6.77584 21.9834 9.25934 21.9824 11.9005C21.9801 17.3509 17.5245 21.7853 12.0502 21.7853ZM20.5033 3.48775C18.2471 1.23984 15.2468 0.00130622 12.0501 0C5.46347 0 0.102797 5.3347 0.100125 11.8918C0.0992812 13.9879 0.6495 16.0337 1.69528 17.8373L0 24L6.33473 22.3462C8.08017 23.2937 10.0453 23.7931 12.0453 23.7938H12.0502C18.6361 23.7938 23.9973 18.4585 24 11.9013C24.0012 8.7236 22.7594 5.73567 20.5033 3.48775Z" class="st0"/>
</svg>
